<svg id="svg2" xmlns="http://www.w3.org/2000/svg" viewBox="0 0 182.3 148.1"><style>.st0{fill:#fff}</style><path id="path22" class="st0" d="M180.7 18.5c-6.6 2.9-13.7 4.9-21.1 5.8 7.6-4.5 13.4-11.8 16.2-20.3-7.1 4.2-15 7.3-23.3 8.9-6.7-7.1-16.3-11.6-26.8-11.6-20.3 0-36.8 16.5-36.8 36.8 0 2.9.3 5.7.9 8.4C59.3 44.9 32.2 30.2 14.1 8c-3.2 5.4-5 11.7-5 18.5 0 12.8 6.5 24 16.4 30.6-6-.2-11.7-1.8-16.7-4.6v.5c0 17.8 12.7 32.7 29.5 36.1-3.1.8-6.3 1.3-9.7 1.3-2.4 0-4.7-.2-6.9-.7 4.7 14.6 18.2 25.2 34.3 25.5-12.6 9.9-28.4 15.7-45.7 15.7-3 0-5.9-.2-8.8-.5 16.3 10.4 35.6 16.5 56.4 16.5 67.6 0 104.6-56 104.6-104.6 0-1.6 0-3.2-.1-4.7 7.2-5.3 13.4-11.7 18.3-19.1"/></svg>