<svg baseProfile="tiny" xmlns="http://www.w3.org/2000/svg" viewBox="0 0 113.8 23.4"><path d="M.1 8.9c0-1.4 0-2.6-.1-3.7h2.7L2.8 7h.1c.6-1 1.7-2.1 3.8-2.1 1.6 0 2.9.9 3.5 2.3h.1c.4-.7.9-1.2 1.5-1.6.7-.5 1.5-.7 2.5-.7 2.1 0 4.2 1.4 4.2 5.4v7.4h-3.1v-6.9c0-2.1-.7-3.3-2.2-3.3-1.1 0-1.9.8-2.2 1.7-.1.3-.2.7-.2 1.1v7.5h-3v-7.2c0-1.7-.7-3-2.2-3-1.2 0-2 .9-2.3 1.8-.1.3-.2.7-.2 1v7.4h-3V8.9zm23.3-3.7l2.3 6.7c.3.8.5 1.7.7 2.4h.1c.2-.7.4-1.6.7-2.5l2-6.7h3.4l-3.1 8.5c-1.7 4.7-2.9 6.8-4.4 8-1.2 1.1-2.5 1.5-3.3 1.6l-.7-2.7c.5-.1 1.2-.4 1.8-.9.6-.4 1.3-1.1 1.7-2 .1-.2.2-.4.2-.6 0-.1 0-.3-.2-.6L20 5.2h3.4zm10.9 9.1c1 .6 2.6 1.1 4.2 1.1 2 0 3.2-.9 3.2-2.4 0-1.3-.9-2.1-3.1-2.9-2.8-1-4.7-2.5-4.7-5 0-2.8 2.4-5 6.1-5 1.9 0 3.3.4 4.2.9l-.8 2.5c-.6-.3-1.8-.8-3.4-.8-2 0-2.9 1.1-2.9 2.1 0 1.3 1 2 3.3 2.8 3 1.1 4.5 2.6 4.5 5.1 0 2.8-2.1 5.2-6.6 5.2-1.8 0-3.7-.5-4.7-1.1l.7-2.5zm37.1 3c-.7.3-2 .7-3.5.7-3.9 0-6.4-2.5-6.4-6.4 0-3.7 2.6-6.7 7-6.7 1.2 0 2.3.3 3.1.6L71 7.9c-.5-.2-1.3-.5-2.4-.5-2.4 0-3.9 1.8-3.8 4.1 0 2.6 1.7 4 3.8 4 1.1 0 1.9-.2 2.5-.5l.3 2.3zm2.4.4V5.2H77v12.5h-3.2zm3.3-16c0 .9-.7 1.7-1.8 1.7s-1.7-.7-1.7-1.7.7-1.7 1.8-1.7c1 0 1.7.7 1.7 1.7zm5.5 10.6c.1 2.3 1.8 3.2 3.9 3.2 1.5 0 2.5-.2 3.5-.6l.5 2.2c-1.2.5-2.7.9-4.5.9-4.1 0-6.4-2.5-6.4-6.3 0-3.5 2.1-6.7 6.1-6.7 4.1 0 5.4 3.3 5.4 6.1 0 .6 0 1.1-.1 1.3h-8.4zm5.5-2.2c0-1.2-.5-3.1-2.6-3.1-2 0-2.8 1.8-2.9 3.1h5.5zM97.2 2v3.2h3v2.4h-3v5.5c0 1.5.4 2.3 1.6 2.3.6 0 .9-.1 1.2-.2l.1 2.4c-.5.2-1.3.3-2.3.3-1.2 0-2.1-.4-2.7-1.1-.7-.7-1-1.8-1-3.5V7.6h-1.8V5.2h1.8V2.9l3.1-.9zm7.6 3.2l2.3 6.7c.3.8.5 1.7.7 2.4h.1c.2-.7.4-1.6.7-2.5l2-6.7h3.4l-3.1 8.5c-1.7 4.7-2.9 6.8-4.4 8-1.2 1.1-2.5 1.5-3.3 1.6l-.7-2.7c.5-.1 1.2-.4 1.8-.9.6-.4 1.3-1.1 1.7-2 .1-.2.2-.4.2-.6 0-.1 0-.3-.2-.6l-4.6-11.5 3.4.3z" fill="#FFF"/><path fill="#ED1C24" d="M52.9 4.4c.9 0 1.6.7 1.6 1.6 0 .9-.7 1.6-1.6 1.6-.9 0-1.6-.7-1.6-1.6 0-.9.7-1.6 1.6-1.6z"/><path fill="#29ABE2" d="M52.9 15.2c.9 0 1.6.7 1.6 1.6 0 .9-.7 1.6-1.6 1.6-.9 0-1.6-.7-1.6-1.6 0-.9.7-1.6 1.6-1.6z"/><path fill="#F7931E" d="M56.7 6c.9 0 1.6.7 1.6 1.6 0 .9-.7 1.6-1.6 1.6-.9 0-1.6-.7-1.6-1.6 0-.8.8-1.6 1.6-1.6z"/><path fill="#662D91" d="M50.2 16.3c-.6.6-1.7.6-2.3 0-.6-.6-.6-1.7 0-2.3.6-.6 1.7-.6 2.3 0 .6.7.6 1.7 0 2.3z"/><path fill="#FCEE21" d="M58.3 9.7c.9 0 1.6.7 1.6 1.6 0 .9-.7 1.6-1.6 1.6-.9 0-1.6-.7-1.6-1.6 0-.8.7-1.6 1.6-1.6z"/><circle fill="#93278F" cx="47.5" cy="11.4" r="1.6"/><path fill="#8CC63F" d="M55.6 16.3c-.6-.6-.6-1.6 0-2.3.6-.6 1.6-.6 2.3 0 .6.6.6 1.6 0 2.3-.7.7-1.7.7-2.3 0z"/></svg>